<?xml version="1.0" encoding="UTF-8"?>
<svg version="1.1" xmlns="http://www.w3.org/2000/svg" width="1024" height="1024">
<path d="M0 0 C337.92 0 675.84 0 1024 0 C1024 337.92 1024 675.84 1024 1024 C686.08 1024 348.16 1024 0 1024 C0 686.08 0 348.16 0 0 Z " fill="#000000" transform="translate(0,0)"/>
<path d="M0 0 C1.37883362 0.00089127 1.37883362 0.00089127 2.78552246 0.00180054 C20.27357653 0.04508004 37.64857466 0.6295716 55 2.9375 C55.646203 3.02269897 56.29240601 3.10789795 56.95819092 3.19567871 C144.82539042 14.88505697 227.16939141 52.18366398 292.73828125 111.984375 C294.14781722 113.25580713 295.56408589 114.52017247 297.00317383 115.75805664 C302.33633707 120.3496047 307.3500078 125.19975338 312.3125 130.1875 C313.07626953 130.94740234 313.84003906 131.70730469 314.62695312 132.49023438 C319.37542941 137.24683466 323.8828513 142.1427497 328.25 147.25 C329.095625 148.21421875 329.94125 149.1784375 330.8125 150.171875 C346.82132575 168.74621769 361.78954058 188.88809072 374.04003906 210.15380859 C375.37706174 212.47012754 376.73173133 214.77571954 378.0859375 217.08203125 C414.01487746 278.65116927 437.14071993 351.27219112 437.453125 423.00390625 C437.46357849 424.63480949 437.46357849 424.63480949 437.47424316 426.29866028 C437.49157357 429.80331326 437.49796687 433.3078059 437.5 436.8125 C437.50100708 438.01263733 437.50201416 439.21277466 437.50305176 440.44927979 C437.48703876 468.72587989 435.82558773 496.46914871 430.25 524.25 C430.04536133 525.28398926 429.84072266 526.31797852 429.62988281 527.38330078 C422.74057417 561.60843872 412.28253664 594.71184463 397.25 626.25 C396.81349121 627.17216309 396.37698242 628.09432617 395.92724609 629.04443359 C371.63586152 680.01778344 335.71886244 729.71680021 292.25 766.25 C291.29738281 767.09175781 290.34476563 767.93351563 289.36328125 768.80078125 C267.96333638 787.6525801 244.09074134 804.25093861 219.25 818.25 C218.40066895 818.73001465 217.55133789 819.2100293 216.67626953 819.70458984 C170.24094836 845.77987032 119.10932658 863.96089306 66.25 871.25 C65.22374512 871.39276367 64.19749023 871.53552734 63.14013672 871.68261719 C43.68243717 874.34559621 24.57559282 875.43670011 4.9453125 875.43530273 C1.52070633 875.43748679 -1.90357557 875.45569871 -5.328125 875.47460938 C-7.56770726 875.47754528 -9.80729101 875.47952876 -12.046875 875.48046875 C-13.03919128 875.48765427 -14.03150757 875.49483978 -15.05389404 875.50224304 C-24.81916382 875.47193306 -33.85938119 874.29111777 -43.75 873.25 C-43.75 756.1 -43.75 638.95 -43.75 518.25 C1.46 517.92 46.67 517.59 93.25 517.25 C111.94634619 515.89338474 111.94634619 515.89338474 130.3125 513.0625 C131.38282471 512.84746826 132.45314941 512.63243652 133.5559082 512.41088867 C177.93205186 503.13518512 221.441283 480.97245163 249.25 444.25 C249.97316406 443.3425 250.69632813 442.435 251.44140625 441.5 C279.82850505 405.16451354 288.83308795 360.04104044 284.94970703 314.74755859 C284.16016508 308.46843708 282.84886556 302.3685706 281.25 296.25 C281.04101074 295.41694336 280.83202148 294.58388672 280.61669922 293.72558594 C272.51391417 262.07920297 255.57996962 235.68475072 233.25 212.25 C232.52425781 211.47140625 231.79851563 210.6928125 231.05078125 209.890625 C204.16698293 181.86389255 166.6085966 164.61451177 129.25 156.25 C128.48880859 156.07887695 127.72761719 155.90775391 126.94335938 155.73144531 C114.12248093 152.90245257 101.80910586 152.10453703 88.71641541 152.12974548 C87.02985399 152.12930904 85.34329265 152.12843279 83.65673167 152.12715632 C79.03661656 152.1249257 74.41652473 152.128913 69.79641259 152.13393438 C64.80879412 152.13825929 59.82117694 152.136791 54.83355713 152.1360321 C46.19693123 152.13550816 37.56031289 152.13864141 28.92368889 152.14426994 C16.43663286 152.15240252 3.94958049 152.15500197 -8.5374779 152.15625793 C-28.79769242 152.15844569 -49.05790291 152.16509829 -69.31811523 152.17456055 C-88.99715149 152.18374181 -108.67618665 152.19081915 -128.35522461 152.19506836 C-130.17523864 152.19546244 -130.17523864 152.19546244 -132.03202064 152.19586449 C-138.11910192 152.19716954 -144.20618321 152.19843325 -150.29326451 152.19967639 C-200.77884579 152.2100404 -251.2644227 152.2276512 -301.75 152.25 C-301.19991776 152.86687683 -300.64983551 153.48375366 -300.08308411 154.11932373 C-299.36190903 154.92911682 -298.64073395 155.73890991 -297.89770508 156.57324219 C-297.18262283 157.37574402 -296.46754059 158.17824585 -295.73078918 159.00506592 C-293.56914116 161.45497697 -291.48596329 163.95481515 -289.4375 166.5 C-286.0714454 170.64953283 -282.65083819 174.74443306 -279.1875 178.8125 C-275.31860992 183.36132042 -271.55221158 187.97507718 -267.84375 192.65625 C-265.36188959 195.73079349 -262.81151487 198.74179044 -260.25 201.75 C-256.35924384 206.31925314 -252.57071079 210.95172572 -248.84375 215.65625 C-246.36188959 218.73079349 -243.81151487 221.74179044 -241.25 224.75 C-237.35924384 229.31925314 -233.57071079 233.95172572 -229.84375 238.65625 C-227.36188959 241.73079349 -224.81151487 244.74179044 -222.25 247.75 C-218.35924384 252.31925314 -214.57071079 256.95172572 -210.84375 261.65625 C-208.36188959 264.73079349 -205.81151487 267.74179044 -203.25 270.75 C-200.02365834 274.53897345 -196.84073002 278.3485867 -193.75 282.25 C-190.67687305 286.12754464 -187.51729857 289.91902679 -184.3125 293.6875 C-178.64067155 300.35691559 -173.10044923 307.12822433 -167.578125 313.921875 C-163.5625486 318.84878789 -159.5006512 323.72793409 -155.375 328.5625 C-151.5921885 332.99861042 -147.94458463 337.51593162 -144.375 342.125 C-139.90191931 347.89502375 -135.19498777 353.4221651 -130.38647461 358.91430664 C-126.01952974 363.90968309 -121.85154932 369.03455623 -117.75 374.25 C-115.57457921 376.94015766 -113.39834841 379.62963206 -111.21875 382.31640625 C-109.75 384.25 -109.75 384.25 -109.75 385.25 C-165.85 385.25 -221.95 385.25 -279.75 385.25 C-273.81 398.45 -267.87 411.65 -261.75 425.25 C-256.2448293 437.72159042 -256.2448293 437.72159042 -253.73052979 443.49813843 C-247.54986839 457.69249958 -241.25594517 471.83218842 -234.875 485.9375 C-228.39800568 500.2601271 -222.06214005 514.63925485 -215.8125 529.0625 C-198.46518433 569.09599015 -180.6889138 608.94058346 -162.94418335 648.7991333 C-148.24544363 681.81798499 -133.68570097 714.89542243 -119.26330566 748.03588867 C-112.87262331 762.71672474 -106.41045941 777.3653946 -99.93066406 792.00708008 C-93.55388713 806.41771069 -87.2118888 820.84339652 -80.88696289 835.27685547 C-80.53931381 836.06968933 -80.19166473 836.86252319 -79.83348083 837.67938232 C-79.15277585 839.23219312 -78.47271692 840.78528731 -77.79335022 842.33868408 C-76.03815277 846.34507992 -74.26139321 850.34031464 -72.45458984 854.32373047 C-72.08198532 855.14900742 -71.7093808 855.97428436 -71.32548523 856.8245697 C-70.61214504 858.4020532 -69.89427647 859.97749925 -69.17121887 861.55055237 C-66.75 866.91530402 -66.75 866.91530402 -66.75 870.25 C-147.93522713 860.20646675 -229.12177331 819.43909393 -289.14697266 764.61791992 C-290.77716574 763.13496713 -292.41430588 761.65957604 -294.06152344 760.19555664 C-300.22306486 754.71912662 -306.1226646 749.02915247 -311.9375 743.1875 C-312.78763672 742.34123047 -313.63777344 741.49496094 -314.51367188 740.62304688 C-319.46752524 735.66154277 -324.2200862 730.60081177 -328.75 725.25 C-329.29197021 724.61473389 -329.83394043 723.97946777 -330.39233398 723.32495117 C-339.40827544 712.69162067 -347.79082709 701.69345737 -355.75 690.25 C-356.1929541 689.61384766 -356.6359082 688.97769531 -357.09228516 688.32226562 C-415.36518682 604.05826183 -441.81930544 500.38890274 -426.65039062 360.07861328 C-422.66565491 338.35395194 -417.00418922 317.1116268 -409.75 296.25 C-409.43595215 295.32896484 -409.1219043 294.40792969 -408.79833984 293.45898438 C-390.55802717 240.14550706 -361.40924052 191.846193 -324.75 149.25 C-324.13640625 148.53457031 -323.5228125 147.81914062 -322.890625 147.08203125 C-311.90947063 134.40141251 -300.49086127 121.75749612 -287.671875 110.8984375 C-286.30283043 109.72417569 -284.9616349 108.51711245 -283.640625 107.2890625 C-275.8048472 100.00547038 -267.30978235 93.64604341 -258.75 87.25 C-258.09273926 86.75677246 -257.43547852 86.26354492 -256.75830078 85.75537109 C-197.14725167 41.10421215 -127.51939941 12.7817416 -53.75 3.25 C-52.52619629 3.08628906 -51.30239258 2.92257813 -50.04150391 2.75390625 C-33.33466034 0.58865996 -16.82673808 -0.0118888 0 0 Z " fill="#000000" transform="translate(509.75,69.75)"/>
<path d="M0 0 C0.55494141 0.41459473 1.10988281 0.82918945 1.68164062 1.25634766 C7.97089841 5.96210014 14.08999131 10.83489478 20.0625 15.9375 C20.57949463 16.37892334 21.09648926 16.82034668 21.62915039 17.27514648 C31.31684105 25.64779288 40.61351352 34.42675536 49.66479492 43.47949219 C51.19237416 45.00486713 52.72783582 46.52200672 54.26367188 48.0390625 C59.88433695 53.62826464 65.10293806 59.36061367 70.05395508 65.56591797 C72.09770775 68.1222113 74.22714709 70.5781151 76.39599609 73.02758789 C141.21804096 146.51049378 179.61576673 251.23159018 180.23828125 349.015625 C180.24802979 350.29863998 180.25777832 351.58165497 180.26782227 352.90354919 C180.29497332 357.01902365 180.30624331 361.13444601 180.3125 365.25 C180.31379787 365.9515836 180.31509575 366.65316719 180.31643295 367.37601089 C180.34742492 389.50131635 179.6265569 411.13200872 176 433 C175.80744629 434.22960449 175.61489258 435.45920898 175.41650391 436.72607422 C168.71673258 479.22512494 156.04643215 519.97857657 138 559 C137.60087402 559.86302734 137.20174805 560.72605469 136.79052734 561.61523438 C122.82211623 591.43185124 104.42963499 619.24883122 84 645 C83.57493164 645.53689453 83.14986328 646.07378906 82.71191406 646.62695312 C78.11568163 652.40486088 73.31703919 657.96929238 68.3359375 663.41796875 C67.06349746 664.82446183 65.7972297 666.23708262 64.56445312 667.6784668 C59.70839082 673.34459804 54.52421792 678.66194529 49.24951172 683.93579102 C47.76106763 685.42641615 46.28082723 686.92487017 44.80078125 688.42382812 C39.27442838 693.98180042 33.60759361 699.14475998 27.45092773 704.01660156 C24.97203201 706.02263293 22.63946486 708.13313432 20.3125 710.3125 C13.61141157 716.4005551 6.31629431 721.68378339 -1 727 C-1.68513672 727.49935059 -2.37027344 727.99870117 -3.07617188 728.51318359 C-69.09929969 776.43772931 -146.69577674 806.47688849 -228 814 C-228.96615234 814.09643799 -229.93230469 814.19287598 -230.92773438 814.29223633 C-242.34211859 815.28436895 -253.78744071 815.18607339 -265.23632812 815.18530273 C-268.83215451 815.18747413 -272.42766572 815.20564018 -276.0234375 815.22460938 C-296.54142535 815.27579093 -316.78352753 813.96865881 -337.0625 810.8125 C-337.74390045 810.70740112 -338.4253009 810.60230225 -339.12734985 810.49401855 C-402.04283208 800.70879002 -462.5726826 777.65622389 -516 743 C-517.09828125 742.29617188 -518.1965625 741.59234375 -519.328125 740.8671875 C-532.39994273 732.33121909 -545.095635 723.10013732 -557 713 C-558.0318991 712.14114193 -559.06448427 711.28310767 -560.09765625 710.42578125 C-571.65899395 700.79625979 -582.54209186 690.55263314 -593.21832275 679.95690918 C-594.22212632 678.96114564 -595.22740562 677.96686706 -596.23431396 676.97424316 C-602.15470648 671.12901843 -607.69550749 665.11759791 -612.88769531 658.609375 C-614.89773616 656.1263287 -616.98179798 653.74722158 -619.125 651.37890625 C-622.99255856 647.06898612 -626.53790148 642.57726398 -630 637.9375 C-630.63518555 637.08679932 -631.27037109 636.23609863 -631.92480469 635.35961914 C-679.85555096 570.47732655 -710.05253462 494.21572598 -719 414 C-719.10441406 413.08186523 -719.20882812 412.16373047 -719.31640625 411.21777344 C-728.87861089 322.8884211 -710.0811692 232.06971508 -623.83349609 82.73901367 C-622.55958308 81.15618029 -621.27989159 79.57800298 -620 78 C-618.84757812 76.55753906 -618.84757812 76.55753906 -617.671875 75.0859375 C-613.15307911 69.47694261 -608.44211695 64.09138249 -603.5546875 58.80078125 C-601.61793538 56.67746127 -599.73777406 54.53160481 -597.8671875 52.3515625 C-593.6662213 47.53807344 -589.19358294 43.00750625 -584.67675781 38.49145508 C-583.26080053 37.07331716 -581.85301711 35.64703335 -580.4453125 34.22070312 C-575.01459841 28.77864354 -569.43571536 23.7273511 -563.41357422 18.94604492 C-561.15163437 17.12226154 -559.00574897 15.22417372 -556.875 13.25 C-529.84760743 -10.98808871 -497.52248411 -30.25760052 -464.97119141 -46.04101562 C-463.02057424 -46.98999063 -461.07876524 -47.95550718 -459.13671875 -48.921875 C-446.44251746 -55.15317549 -433.27022819 -60.14280596 -420 -65 C-418.54859619 -65.53391357 -418.54859619 -65.53391357 -417.06787109 -66.07861328 C-389.01322526 -76.2665454 -359.55392072 -83.03752962 -330 -87 C-328.83936035 -87.16226074 -327.6787207 -87.32452148 -326.48291016 -87.49169922 C-234.58983373 -99.82300943 -141.58129204 -80.34560451 0 0 Z M-326 -72 C-327.26569824 -71.83902832 -328.53139648 -71.67805664 -329.83544922 -71.51220703 C-399.31515764 -62.48131972 -466.56834342 -35.56888458 -523 6 C-523.68143066 6.49741699 -524.36286133 6.99483398 -525.06494141 7.50732422 C-537.80286852 16.81776496 -549.74823226 26.80655615 -561.3125 37.53125 C-563.44447192 39.48968932 -565.602046 41.38254748 -567.8125 43.25 C-577.19925954 51.39439431 -586.01380777 60.48677761 -594 70 C-595.29744141 71.48113281 -595.29744141 71.48113281 -596.62109375 72.9921875 C-632.95925913 114.53445631 -661.23814603 163.16056488 -680 215 C-680.3515918 215.95890137 -680.70318359 216.91780273 -681.06542969 217.90576172 C-694.14631603 253.91262255 -702.38265742 292.7746246 -705 331 C-705.05494629 331.71091797 -705.10989258 332.42183594 -705.16650391 333.15429688 C-713.00300105 436.06900276 -683.15549073 538.84768216 -608.0625 641.1875 C-606.38623882 643.13530412 -604.69542656 645.06871213 -603 647 C-602.36707031 647.7321875 -601.73414063 648.464375 -601.08203125 649.21875 C-599.40087613 651.15765659 -597.70244692 653.07976665 -596 655 C-595.35828857 655.72654785 -594.71657715 656.4530957 -594.05541992 657.20166016 C-588.53846339 663.39602712 -582.81567478 669.33630996 -576.9375 675.1875 C-576.09123047 676.03763672 -575.24496094 676.88777344 -574.37304688 677.76367188 C-569.41102574 682.71804147 -564.33499572 687.45142919 -559 692 C-558.03578125 692.845625 -557.0715625 693.69125 -556.078125 694.5625 C-496.35190433 746.03924268 -417.89867307 785.23933941 -339 795 C-339.6763756 790.12719954 -341.62025211 785.99035032 -343.62109375 781.546875 C-343.99218765 780.71162292 -344.36328156 779.87637085 -344.74562073 779.01580811 C-345.97172254 776.25849946 -347.20471101 773.50432445 -348.4375 770.75 C-349.30203079 768.80820906 -350.16595407 766.86614754 -351.02929688 764.92382812 C-352.36381186 761.92151638 -353.69863591 758.91934764 -355.0352478 755.91796875 C-359.02371054 746.96030485 -362.96972286 737.98439402 -366.90374756 729.00271606 C-373.10340454 714.84905898 -379.33442128 700.7095474 -385.58789062 686.57958984 C-391.27065247 673.7389952 -396.93692757 660.89296524 -402.5 648 C-418.6101404 610.67628267 -435.27238882 573.58856286 -451.80575562 536.45100403 C-464.97788354 506.86148953 -478.13741206 477.26482649 -490.95605469 447.52001953 C-496.7835638 433.99806053 -502.77572737 420.55836735 -508.83834839 407.14041138 C-515.33187376 392.76513701 -521.71617035 378.34483139 -528.02026367 363.88549805 C-535.8919496 345.86732054 -543.96900822 327.95162868 -552 310 C-495.9 310 -439.8 310 -382 310 C-384.89821846 305.65267231 -387.79525762 301.73210528 -391.1875 297.8125 C-392.17518339 296.65815426 -393.16215339 295.50319777 -394.1484375 294.34765625 C-394.6340918 293.77934082 -395.11974609 293.21102539 -395.62011719 292.62548828 C-398.29172264 289.47836353 -400.88845128 286.27038895 -403.49609375 283.0703125 C-406.61342974 279.24780691 -409.7419294 275.43461513 -412.875 271.625 C-413.47715332 270.89273193 -414.07930664 270.16046387 -414.69970703 269.40600586 C-418.3239148 265.00783294 -421.98664967 260.64624937 -425.6875 256.3125 C-429.3668375 252.00211333 -432.90383999 247.60441961 -436.375 243.125 C-440.85014118 237.35268136 -445.55822133 231.82242666 -450.37011719 226.32910156 C-454.02701475 222.14760423 -457.54258284 217.88383694 -460.98046875 213.51953125 C-463.41180704 210.48623687 -465.9185624 207.52311433 -468.4375 204.5625 C-474.10949605 197.89322992 -479.64955434 191.12177127 -485.171875 184.328125 C-489.25276429 179.32107643 -493.3780369 174.35794562 -497.5625 169.4375 C-501.43112303 164.88844585 -505.19777962 160.27493392 -508.90625 155.59375 C-511.38811041 152.51920651 -513.93848513 149.50820956 -516.5 146.5 C-520.39075616 141.93074686 -524.17928921 137.29827428 -527.90625 132.59375 C-530.38811041 129.51920651 -532.93848513 126.50820956 -535.5 123.5 C-539.39498709 118.92577811 -543.18773515 114.2883996 -546.91796875 109.578125 C-549.33083922 106.59033042 -551.81789752 103.66938269 -554.3125 100.75 C-558.81941231 95.47349923 -563.14532332 90.07515245 -567.3840332 84.58105469 C-569.46639919 81.89297333 -571.56421103 79.36998055 -574 77 C-522.47402982 76.93126767 -470.94806429 76.87843762 -419.42205725 76.84680401 C-413.3328851 76.84305209 -407.24371303 76.8391691 -401.15454102 76.83520508 C-399.33624654 76.83402468 -399.33624654 76.83402468 -397.48121885 76.83282044 C-377.87783252 76.81978212 -358.2744727 76.79613697 -338.67110207 76.76854161 C-318.54210109 76.74044358 -298.41311394 76.72381445 -278.28409415 76.71773452 C-265.87288624 76.71362719 -253.46175327 76.70067507 -241.05056844 76.6762506 C-232.52884443 76.66033909 -224.00715892 76.65561186 -215.48542114 76.65949587 C-210.57579498 76.66140901 -205.66629939 76.65856749 -200.7566967 76.64238358 C-196.24862034 76.62763295 -191.7407606 76.62714437 -187.23267362 76.63730332 C-185.61457606 76.63855625 -183.99646419 76.63488015 -182.37839421 76.62535045 C-167.11405865 76.54078744 -152.2608566 78.65882312 -137.4375 82.3125 C-136.56875244 82.52487305 -135.70000488 82.73724609 -134.80493164 82.95605469 C-81.81808489 96.25948455 -37.22319771 129.12781271 -8.91845703 175.78271484 C6.22574706 201.42614169 13.4535031 230.95609799 13.3125 260.5625 C13.30976578 261.75345779 13.30976578 261.75345779 13.30697632 262.96847534 C13.25975622 275.19479023 12.72458214 287.03713452 10 299 C9.82307617 299.79599609 9.64615234 300.59199219 9.46386719 301.41210938 C6.96849973 312.35035221 3.6430355 322.77026632 -1 333 C-1.29245605 333.64533691 -1.58491211 334.29067383 -1.88623047 334.95556641 C-8.65473636 349.64275838 -17.34658779 362.82467176 -28 375 C-28.45632813 375.52335937 -28.91265625 376.04671875 -29.3828125 376.5859375 C-36.04156635 384.1705074 -42.93490007 390.88423366 -51 397 C-51.52867676 397.41427246 -52.05735352 397.82854492 -52.60205078 398.25537109 C-127.45375454 456.90766348 -226.96822383 442.35013302 -316 443 C-316 560.15 -316 677.3 -316 798 C-300.2759723 799.71782149 -300.2759723 799.71782149 -284.61328125 800.265625 C-283.54289108 800.26753845 -282.47250092 800.2694519 -281.36967468 800.27142334 C-279.13585165 800.27276557 -276.90202028 800.26920913 -274.66821289 800.26074219 C-271.33395981 800.2500687 -268.000252 800.26067863 -264.66601562 800.2734375 C-245.41936743 800.28655566 -226.29927666 799.05510435 -207.25 796.25 C-206.09717529 796.08153564 -204.94435059 795.91307129 -203.7565918 795.73950195 C-123.07750727 783.47068499 -45.1762735 748.25219461 16 694 C17.37461834 692.81205822 18.74955738 691.6244873 20.125 690.4375 C33.42548327 678.71170396 46.58114524 666.59745205 58 653 C58.88381475 651.98948211 59.76940641 650.98051704 60.65625 649.97265625 C68.2409134 641.31230435 75.23308674 632.30975269 82 623 C82.48968262 622.33129883 82.97936523 621.66259766 83.48388672 620.97363281 C95.99349792 603.84045611 107.095813 585.75640386 117 567 C117.70938721 565.65711914 117.70938721 565.65711914 118.43310547 564.28710938 C150.95335518 502.18856551 165.5390968 433.18854313 165.3125 363.375 C165.31067719 362.19922394 165.30885437 361.02344788 165.30697632 359.81204224 C165.2590257 341.37260849 164.67842233 323.27075993 162 305 C161.82839355 303.8140625 161.65678711 302.628125 161.47998047 301.40625 C150.40446962 227.2923758 121.81746788 156.52916281 76 97 C75.51047852 96.35885254 75.02095703 95.71770508 74.51660156 95.05712891 C61.68517419 78.28063535 47.64260349 62.590301 32.75 47.625 C32.10063477 46.97096191 31.45126953 46.31692383 30.78222656 45.64306641 C26.3512077 41.22667508 21.73966594 37.0809037 17 33 C15.95197693 32.0742147 14.90502772 31.14721171 13.859375 30.21875 C-58.00648344 -32.94937854 -152.87596341 -70.68515367 -272.25 -75.25 C-273.2049939 -75.25067474 -274.15998779 -75.25134949 -275.1439209 -75.25204468 C-292.27613903 -75.2329978 -309.00187148 -74.26446824 -326 -72 Z " fill="#FEFEFE" transform="translate(782,145)"/>
<path d="M0 0 C30.34588279 -0.12049101 30.34588279 -0.12049101 45.42797089 -0.1507616 C53.55685235 -0.1673304 61.6856406 -0.18830373 69.81445312 -0.22631836 C76.2544687 -0.25642067 82.69441365 -0.27562188 89.13449764 -0.28226548 C92.53776239 -0.28614288 95.94082526 -0.29511625 99.34402466 -0.31719017 C123.04223634 -0.45380942 146.72335941 0.08437544 165.2890625 17.09765625 C175.18822146 27.60856098 179.61282337 40.52888063 179.22265625 54.86328125 C178.33896637 67.31245617 173.83486977 79.22715264 164.84765625 88.1328125 C145.78109646 104.38728649 122.43199438 103.45602911 98.73184347 103.30418181 C95.24858523 103.28514915 91.76531516 103.28364402 88.28201294 103.28010559 C81.71641845 103.27086183 75.15097773 103.2463546 68.58545029 103.21605712 C60.36038202 103.17894306 52.13528763 103.16274929 43.91015625 103.14648438 C29.27331839 103.11745008 14.63681498 103.05732434 0 103 C0 69.01 0 35.02 0 0 Z " fill="#000000" transform="translate(466,352)"/>
</svg>
